<?xml version="1.0" standalone="no"?>
<!DOCTYPE svg PUBLIC "-//W3C//DTD SVG 20010904//EN"
 "http://www.w3.org/TR/2001/REC-SVG-20010904/DTD/svg10.dtd">
<svg version="1.0" xmlns="http://www.w3.org/2000/svg"
 width="72.000000pt" height="72.000000pt" viewBox="0 0 72.000000 72.000000"
 preserveAspectRatio="xMidYMid meet">
<metadata>
Created by potrace 1.14, written by Peter Selinger 2001-2017
</metadata>
<g transform="translate(0.000000,72.000000) scale(0.100000,-0.100000)"
fill="#000000" stroke="none">
<path d="M110 695 c0 -21 -5 -25 -30 -25 -27 0 -30 -3 -30 -30 0 -25 -4 -30
-25 -30 -25 0 -25 -1 -25 -85 0 -83 0 -85 24 -85 19 0 25 -6 28 -27 2 -22 9
-29 31 -31 21 -3 27 -9 27 -28 0 -19 5 -24 24 -24 19 0 25 -6 28 -28 2 -21 9
-28 31 -30 21 -3 27 -9 27 -28 0 -19 5 -24 24 -24 19 0 25 -6 28 -28 2 -21 9
-28 31 -30 21 -3 27 -9 27 -28 0 -20 5 -24 30 -24 25 0 30 4 30 25 0 21 5 25
30 25 27 0 30 3 30 30 0 25 4 30 25 30 20 0 25 5 25 24 0 19 6 25 28 28 21 2
28 9 30 31 3 21 9 27 28 27 19 0 24 5 24 24 0 19 6 25 28 28 21 2 28 9 30 31
3 21 9 27 28 27 24 0 24 2 24 85 0 84 0 85 -25 85 -21 0 -25 5 -25 30 0 27 -3
30 -30 30 -25 0 -30 4 -30 25 0 25 -1 25 -85 25 -83 0 -85 0 -85 -24 0 -19 -6
-25 -27 -28 -22 -2 -29 -9 -31 -30 -2 -20 -9 -28 -22 -28 -13 0 -20 8 -22 28
-2 21 -9 28 -30 30 -22 3 -28 9 -28 28 0 24 -2 24 -85 24 -84 0 -85 0 -85 -25z
m110 -110 c0 -20 -5 -25 -25 -25 -21 0 -25 -5 -25 -30 0 -27 -3 -30 -30 -30
-29 0 -30 1 -30 48 0 27 3 52 7 55 3 4 28 7 55 7 45 0 48 -2 48 -25z"/>
</g>
</svg>
