<?xml version="1.0" encoding="utf-8"?>
<!-- Generator: Adobe Illustrator 25.4.1, SVG Export Plug-In . SVG Version: 6.00 Build 0)  -->
<svg version="1.1" id="レイヤー_1" xmlns="http://www.w3.org/2000/svg" xmlns:xlink="http://www.w3.org/1999/xlink" x="0px"
	 y="0px" viewBox="0 0 95 169" style="enable-background:new 0 0 95 169;" xml:space="preserve">
<style type="text/css">
	.st0{fill:#FFFFFF;}
	.st1{fill:#FFFFFF;stroke:#231815;stroke-miterlimit:10;}
	.st2{fill:none;stroke:#231815;stroke-width:2;}
	.st3{fill:none;stroke:#FFFFFF;}
</style>
<path class="st0" d="M48,169V0h7.4v155l35.2-25.7l4.4,5.3L48,169z"/>
<g>
	<g>
		<path class="st1" d="M25.2,32.2c-2-0.1-4.2-0.3-6.3-0.3v-0.3l2.5-0.4c3.4-0.5,4.2-2.9,4.2-6c0-3.2-1.3-5.1-3.5-5.1
			c-2.1,0-3.3,1.4-4.8,5.7c-1.7,5.1-2.9,7.4-5.5,7.4c-2.7,0-5.3-3.2-5.3-8.8c0-2.8,0.9-5.2,1.6-6.4c1.5,0.1,3.5,0.2,5.8,0.2v0.4
			l-2.2,0.3c-3.3,0.4-4.3,2.4-4.3,7.2c0,4.6,1.2,6,3.4,6c2.1,0,3.1-1.4,4.9-6.9c1.3-4,2.7-6.3,5.3-6.3c2.7,0,5,3,5,7.5
			C26.1,29.3,25.5,31.1,25.2,32.2z"/>
		<path class="st1" d="M11.2,55.8l3.6,0.6v0.3c-1.8,0.2-3.4,0.4-5.1,0.5C8,55,6.6,52.2,6.6,47.7c0-6.8,4.2-11.1,10.2-11.1
			c5.3,0,9.4,5.2,9.4,12.4c0,3.6-0.9,6.3-1.6,8.1c-2-0.2-4-0.3-6-0.4v-0.3l2.9-0.5c2.3-0.4,3.8-2.7,3.8-8.5c0-5.9-2.6-8.9-7.4-8.9
			c-6.4,0-10.4,4.2-10.4,11.2C7.4,54.2,8.7,55.4,11.2,55.8z"/>
		<path class="st1" d="M7.5,68.3l-0.3,3.4H6.9V60.4h0.3l0.3,2.5c0.2,1.9,0.4,1.9,8.7,1.9c8.9,0,9,0,9.2-2.1l0.2-2.4l0.3,0v11.5
			c0,5.3-1.5,7.6-3.9,7.6c-2.6,0-4.9-2.5-5.5-6.3C11,76.7,8,80.2,7.6,81.3l-0.4,1.4H6.9v-3.8c1.1-1.5,4.5-4.4,9.4-7.6
			c0-0.2,0-0.3,0-0.4c0-1.1,0.1-2.9,0.6-4.4h-0.3C7.9,66.5,7.7,66.6,7.5,68.3z M21.2,77.5c2.8,0,4.4-2.3,4.4-6.9
			c0-1.3-0.1-2.6-0.3-3.9c-0.7-0.2-2.3-0.3-7.9-0.3C17,68.4,17,69.8,17,71.9C17,75.9,18.6,77.5,21.2,77.5z"/>
		<path class="st1" d="M6.6,94.5c0-6.4,4.3-10.6,10.2-10.6c5.5,0,9.3,4.9,9.3,12.2c0,6.5-3.3,10.9-8.6,10.9
			C11.2,106.9,6.6,101.7,6.6,94.5z M7.4,96.1c0,5.8,3.2,8.6,9,8.6c5.8,0,8.8-3.6,8.8-10c0-6.3-2.5-8.9-7.5-8.9
			C11.4,85.8,7.4,89.4,7.4,96.1z"/>
		<path class="st1" d="M7.3,116c0.3,8.3,0.7,8.8,3.5,9.6l5.2,1.3v0.4c-3.1-0.4-6.5-1-9-1.1v-16.7h0.3l0.3,2.4
			c0.3,1.9,0.4,1.9,8.7,1.9c8.9,0,9,0,9.2-2.1l0.2-2.4h0.3v11h-0.3l-0.3-3.1c-0.1-1.4-0.4-1.6-8.7-1.6C9.1,115.6,8,115.8,7.3,116z"
			/>
		<path class="st1" d="M7.3,135.9c0.3,8.3,0.7,8.8,3.5,9.6l5.2,1.3v0.4c-3.1-0.4-6.5-1-9-1.1v-16.7h0.3l0.3,2.4
			c0.3,1.9,0.4,1.9,8.7,1.9c8.9,0,9,0,9.2-2.1l0.2-2.4h0.3v11h-0.3l-0.3-3.1c-0.1-1.4-0.4-1.6-8.7-1.6C9.1,135.5,8,135.6,7.3,135.9z
			"/>
	</g>
	<g>
		<path class="st2" d="M25.2,32.2c-2-0.1-4.2-0.3-6.3-0.3v-0.3l2.5-0.4c3.4-0.5,4.2-2.9,4.2-6c0-3.2-1.3-5.1-3.5-5.1
			c-2.1,0-3.3,1.4-4.8,5.7c-1.7,5.1-2.9,7.4-5.5,7.4c-2.7,0-5.3-3.2-5.3-8.8c0-2.8,0.9-5.2,1.6-6.4c1.5,0.1,3.5,0.2,5.8,0.2v0.4
			l-2.2,0.3c-3.3,0.4-4.3,2.4-4.3,7.2c0,4.6,1.2,6,3.4,6c2.1,0,3.1-1.4,4.9-6.9c1.3-4,2.7-6.3,5.3-6.3c2.7,0,5,3,5,7.5
			C26.1,29.3,25.5,31.1,25.2,32.2z"/>
		<path class="st2" d="M11.2,55.8l3.6,0.6v0.3c-1.8,0.2-3.4,0.4-5.1,0.5C8,55,6.6,52.2,6.6,47.7c0-6.8,4.2-11.1,10.2-11.1
			c5.3,0,9.4,5.2,9.4,12.4c0,3.6-0.9,6.3-1.6,8.1c-2-0.2-4-0.3-6-0.4v-0.3l2.9-0.5c2.3-0.4,3.8-2.7,3.8-8.5c0-5.9-2.6-8.9-7.4-8.9
			c-6.4,0-10.4,4.2-10.4,11.2C7.4,54.2,8.7,55.4,11.2,55.8z"/>
		<path class="st2" d="M7.5,68.3l-0.3,3.4H6.9V60.4h0.3l0.3,2.5c0.2,1.9,0.4,1.9,8.7,1.9c8.9,0,9,0,9.2-2.1l0.2-2.4l0.3,0v11.5
			c0,5.3-1.5,7.6-3.9,7.6c-2.6,0-4.9-2.5-5.5-6.3C11,76.7,8,80.2,7.6,81.3l-0.4,1.4H6.9v-3.8c1.1-1.5,4.5-4.4,9.4-7.6
			c0-0.2,0-0.3,0-0.4c0-1.1,0.1-2.9,0.6-4.4h-0.3C7.9,66.5,7.7,66.6,7.5,68.3z M21.2,77.5c2.8,0,4.4-2.3,4.4-6.9
			c0-1.3-0.1-2.6-0.3-3.9c-0.7-0.2-2.3-0.3-7.9-0.3C17,68.4,17,69.8,17,71.9C17,75.9,18.6,77.5,21.2,77.5z"/>
		<path class="st2" d="M6.6,94.5c0-6.4,4.3-10.6,10.2-10.6c5.5,0,9.3,4.9,9.3,12.2c0,6.5-3.3,10.9-8.6,10.9
			C11.2,106.9,6.6,101.7,6.6,94.5z M7.4,96.1c0,5.8,3.2,8.6,9,8.6c5.8,0,8.8-3.6,8.8-10c0-6.3-2.5-8.9-7.5-8.9
			C11.4,85.8,7.4,89.4,7.4,96.1z"/>
		<path class="st2" d="M7.3,116c0.3,8.3,0.7,8.8,3.5,9.6l5.2,1.3v0.4c-3.1-0.4-6.5-1-9-1.1v-16.7h0.3l0.3,2.4
			c0.3,1.9,0.4,1.9,8.7,1.9c8.9,0,9,0,9.2-2.1l0.2-2.4h0.3v11h-0.3l-0.3-3.1c-0.1-1.4-0.4-1.6-8.7-1.6C9.1,115.6,8,115.8,7.3,116z"
			/>
		<path class="st2" d="M7.3,135.9c0.3,8.3,0.7,8.8,3.5,9.6l5.2,1.3v0.4c-3.1-0.4-6.5-1-9-1.1v-16.7h0.3l0.3,2.4
			c0.3,1.9,0.4,1.9,8.7,1.9c8.9,0,9,0,9.2-2.1l0.2-2.4h0.3v11h-0.3l-0.3-3.1c-0.1-1.4-0.4-1.6-8.7-1.6C9.1,135.5,8,135.6,7.3,135.9z
			"/>
	</g>
	<g>
		<path class="st3" d="M25.2,32.2c-2-0.1-4.2-0.3-6.3-0.3v-0.3l2.5-0.4c3.4-0.5,4.2-2.9,4.2-6c0-3.2-1.3-5.1-3.5-5.1
			c-2.1,0-3.3,1.4-4.8,5.7c-1.7,5.1-2.9,7.4-5.5,7.4c-2.7,0-5.3-3.2-5.3-8.8c0-2.8,0.9-5.2,1.6-6.4c1.5,0.1,3.5,0.2,5.8,0.2v0.4
			l-2.2,0.3c-3.3,0.4-4.3,2.4-4.3,7.2c0,4.6,1.2,6,3.4,6c2.1,0,3.1-1.4,4.9-6.9c1.3-4,2.7-6.3,5.3-6.3c2.7,0,5,3,5,7.5
			C26.1,29.3,25.5,31.1,25.2,32.2z"/>
		<path class="st3" d="M11.2,55.8l3.6,0.6v0.3c-1.8,0.2-3.4,0.4-5.1,0.5C8,55,6.6,52.2,6.6,47.7c0-6.8,4.2-11.1,10.2-11.1
			c5.3,0,9.4,5.2,9.4,12.4c0,3.6-0.9,6.3-1.6,8.1c-2-0.2-4-0.3-6-0.4v-0.3l2.9-0.5c2.3-0.4,3.8-2.7,3.8-8.5c0-5.9-2.6-8.9-7.4-8.9
			c-6.4,0-10.4,4.2-10.4,11.2C7.4,54.2,8.7,55.4,11.2,55.8z"/>
		<path class="st3" d="M7.5,68.3l-0.3,3.4H6.9V60.4h0.3l0.3,2.5c0.2,1.9,0.4,1.9,8.7,1.9c8.9,0,9,0,9.2-2.1l0.2-2.4l0.3,0v11.5
			c0,5.3-1.5,7.6-3.9,7.6c-2.6,0-4.9-2.5-5.5-6.3C11,76.7,8,80.2,7.6,81.3l-0.4,1.4H6.9v-3.8c1.1-1.5,4.5-4.4,9.4-7.6
			c0-0.2,0-0.3,0-0.4c0-1.1,0.1-2.9,0.6-4.4h-0.3C7.9,66.5,7.7,66.6,7.5,68.3z M21.2,77.5c2.8,0,4.4-2.3,4.4-6.9
			c0-1.3-0.1-2.6-0.3-3.9c-0.7-0.2-2.3-0.3-7.9-0.3C17,68.4,17,69.8,17,71.9C17,75.9,18.6,77.5,21.2,77.5z"/>
		<path class="st3" d="M6.6,94.5c0-6.4,4.3-10.6,10.2-10.6c5.5,0,9.3,4.9,9.3,12.2c0,6.5-3.3,10.9-8.6,10.9
			C11.2,106.9,6.6,101.7,6.6,94.5z M7.4,96.1c0,5.8,3.2,8.6,9,8.6c5.8,0,8.8-3.6,8.8-10c0-6.3-2.5-8.9-7.5-8.9
			C11.4,85.8,7.4,89.4,7.4,96.1z"/>
		<path class="st3" d="M7.3,116c0.3,8.3,0.7,8.8,3.5,9.6l5.2,1.3v0.4c-3.1-0.4-6.5-1-9-1.1v-16.7h0.3l0.3,2.4
			c0.3,1.9,0.4,1.9,8.7,1.9c8.9,0,9,0,9.2-2.1l0.2-2.4h0.3v11h-0.3l-0.3-3.1c-0.1-1.4-0.4-1.6-8.7-1.6C9.1,115.6,8,115.8,7.3,116z"
			/>
		<path class="st3" d="M7.3,135.9c0.3,8.3,0.7,8.8,3.5,9.6l5.2,1.3v0.4c-3.1-0.4-6.5-1-9-1.1v-16.7h0.3l0.3,2.4
			c0.3,1.9,0.4,1.9,8.7,1.9c8.9,0,9,0,9.2-2.1l0.2-2.4h0.3v11h-0.3l-0.3-3.1c-0.1-1.4-0.4-1.6-8.7-1.6C9.1,135.5,8,135.6,7.3,135.9z
			"/>
	</g>
	<g>
		<path class="st0" d="M25.2,32.2c-2-0.1-4.2-0.3-6.3-0.3v-0.3l2.5-0.4c3.4-0.5,4.2-2.9,4.2-6c0-3.2-1.3-5.1-3.5-5.1
			c-2.1,0-3.3,1.4-4.8,5.7c-1.7,5.1-2.9,7.4-5.5,7.4c-2.7,0-5.3-3.2-5.3-8.8c0-2.8,0.9-5.2,1.6-6.4c1.5,0.1,3.5,0.2,5.8,0.2v0.4
			l-2.2,0.3c-3.3,0.4-4.3,2.4-4.3,7.2c0,4.6,1.2,6,3.4,6c2.1,0,3.1-1.4,4.9-6.9c1.3-4,2.7-6.3,5.3-6.3c2.7,0,5,3,5,7.5
			C26.1,29.3,25.5,31.1,25.2,32.2z"/>
		<path class="st0" d="M11.2,55.8l3.6,0.6v0.3c-1.8,0.2-3.4,0.4-5.1,0.5C8,55,6.6,52.2,6.6,47.7c0-6.8,4.2-11.1,10.2-11.1
			c5.3,0,9.4,5.2,9.4,12.4c0,3.6-0.9,6.3-1.6,8.1c-2-0.2-4-0.3-6-0.4v-0.3l2.9-0.5c2.3-0.4,3.8-2.7,3.8-8.5c0-5.9-2.6-8.9-7.4-8.9
			c-6.4,0-10.4,4.2-10.4,11.2C7.4,54.2,8.7,55.4,11.2,55.8z"/>
		<path class="st0" d="M7.5,68.3l-0.3,3.4H6.9V60.4h0.3l0.3,2.5c0.2,1.9,0.4,1.9,8.7,1.9c8.9,0,9,0,9.2-2.1l0.2-2.4l0.3,0v11.5
			c0,5.3-1.5,7.6-3.9,7.6c-2.6,0-4.9-2.5-5.5-6.3C11,76.7,8,80.2,7.6,81.3l-0.4,1.4H6.9v-3.8c1.1-1.5,4.5-4.4,9.4-7.6
			c0-0.2,0-0.3,0-0.4c0-1.1,0.1-2.9,0.6-4.4h-0.3C7.9,66.5,7.7,66.6,7.5,68.3z M21.2,77.5c2.8,0,4.4-2.3,4.4-6.9
			c0-1.3-0.1-2.6-0.3-3.9c-0.7-0.2-2.3-0.3-7.9-0.3C17,68.4,17,69.8,17,71.9C17,75.9,18.6,77.5,21.2,77.5z"/>
		<path class="st0" d="M6.6,94.5c0-6.4,4.3-10.6,10.2-10.6c5.5,0,9.3,4.9,9.3,12.2c0,6.5-3.3,10.9-8.6,10.9
			C11.2,106.9,6.6,101.7,6.6,94.5z M7.4,96.1c0,5.8,3.2,8.6,9,8.6c5.8,0,8.8-3.6,8.8-10c0-6.3-2.5-8.9-7.5-8.9
			C11.4,85.8,7.4,89.4,7.4,96.1z"/>
		<path class="st0" d="M7.3,116c0.3,8.3,0.7,8.8,3.5,9.6l5.2,1.3v0.4c-3.1-0.4-6.5-1-9-1.1v-16.7h0.3l0.3,2.4
			c0.3,1.9,0.4,1.9,8.7,1.9c8.9,0,9,0,9.2-2.1l0.2-2.4h0.3v11h-0.3l-0.3-3.1c-0.1-1.4-0.4-1.6-8.7-1.6C9.1,115.6,8,115.8,7.3,116z"
			/>
		<path class="st0" d="M7.3,135.9c0.3,8.3,0.7,8.8,3.5,9.6l5.2,1.3v0.4c-3.1-0.4-6.5-1-9-1.1v-16.7h0.3l0.3,2.4
			c0.3,1.9,0.4,1.9,8.7,1.9c8.9,0,9,0,9.2-2.1l0.2-2.4h0.3v11h-0.3l-0.3-3.1c-0.1-1.4-0.4-1.6-8.7-1.6C9.1,135.5,8,135.6,7.3,135.9z
			"/>
	</g>
</g>
</svg>
